<?xml version="1.0" encoding="utf-8"?>
<!-- Generator: Adobe Illustrator 22.1.0, SVG Export Plug-In . SVG Version: 6.00 Build 0)  -->
<svg version="1.1" id="Layer_1" xmlns="http://www.w3.org/2000/svg" xmlns:xlink="http://www.w3.org/1999/xlink" x="0px" y="0px"
	 viewBox="0 0 18.4 32" style="enable-background:new 0 0 18.4 32;" xml:space="preserve">
<style type="text/css">
	.st0{fill:#FFFFFF;}
</style>
<g id="c5TPZq.tif">
	<g>
		<path class="st0" d="M7.8,32c-0.3-0.3-0.4-0.7-0.3-1.2c0.2-0.8,0.2-1.7,0.1-2.5c-0.1-0.7-0.3-1.4-0.3-2c-0.1-0.8,0.1-1.6,0.5-2.3
			c0.3-0.6,0.5-1.2,0.5-1.8c0-0.3-0.1-0.6-0.1-0.9c-0.1-0.8-0.1-1.5,0-2.3c0.1-0.5,0.1-1-0.1-1.5c-0.1-0.4-0.3-0.7-0.3-1.1
			c0-1.1,0.4-1.9,1.2-2.6c0.4-0.4,0.8-0.8,1.2-1.1c0.4-0.4,0.6-0.8,0.6-1.4c0-0.5,0-1-0.3-1.5c-0.1-0.3-0.2-0.6-0.4-0.8
			C10,8.6,9.9,8.3,9.9,8c0-0.5-0.2-0.8-0.6-1c-0.6-0.3-1.2-0.7-1.8-1C7.2,5.7,6.9,5.6,6.6,5.5C6.3,5.7,6.2,6.1,6,6.4
			c-0.5-0.3-0.2-0.7-0.1-1c-0.3,0-0.6,0-0.8,0.3C4.9,6.1,4.7,6,4.2,5.8C4.1,5.7,3.9,5.7,3.9,5.5c0.1,0,0.2-0.1,0.2-0.1
			C3.9,5.2,3.9,5.2,3.7,5C3.8,4.8,4,4.9,4.2,4.8C4.1,4.7,4.1,4.7,4,4.6c0-0.3,0.3-0.2,0.4-0.3c-0.3-0.4-0.7-0.6-1-1
			C3.2,3.5,3,3.7,2.9,3.9C2.8,4,2.7,4.2,2.7,4.4c0,0.2-0.1,0.4-0.1,0.6c-0.2,0.1-0.3,0-0.4-0.1C2,4.7,1.9,4.5,2,4.2
			C2.1,4,2.1,3.9,2.2,3.7C1.8,3.6,1.8,3.6,1.6,3.8C1.3,4.1,1.1,4.3,0.7,4.3c0-0.1-0.1-0.2-0.1-0.4c-0.1,0-0.3-0.1-0.4-0.1
			C0.1,3.8,0,3.6,0,3.5c0-0.1,0.1-0.3,0.3-0.4C0.4,3.1,0.5,3.1,0.7,3C0.6,2.9,0.6,2.8,0.5,2.7c0.1-0.1,0.2-0.1,0.3-0.2
			C1.2,2.3,1.7,2.1,2.2,2c0.3-0.1,0.7-0.2,1-0.2c0.1,0,0.3,0,0.5,0.1c0.9,0.5,1.9,0.9,2.8,1.4C7.2,3.7,8,4.2,8.9,4.4
			c0.1,0,0.2,0.1,0.3,0.1c0.4,0.2,0.8,0.4,1.3,0.3c0.3,0,0.6,0.1,0.9,0.1c0.1-0.4,0.1-0.7-0.2-1c-0.4-0.4-0.5-1-0.5-1.5
			c-0.4-0.1-0.7-0.3-0.8-0.7c-0.2-0.5,0.1-0.9,0.3-1.3C10.3,0.1,10.6,0,11,0c0.3,0,0.5,0.1,0.6,0.4c0,0.1,0.1,0.1,0.1,0.2
			c0.6-0.2,1.2-0.1,1.8,0.1c0.4,0.1,0.7,0.4,1,0.7c0.4,0.4,0.6,0.9,0.4,1.5c-0.1,0.3,0,0.5,0.1,0.7c0.2,0.3,0.2,0.3-0.1,0.6
			c0,0-0.1,0.1-0.1,0.1c-0.1,0.3-0.2,0.5-0.2,0.8c0,0.3-0.2,0.4-0.4,0.4c-0.2,0.1-0.4,0.1-0.6,0.1c-0.1,0.4-0.1,0.8,0.3,1.1
			c0.3,0.2,0.5,0.5,0.7,0.7c0.8,0.8,0.9,1.8,0.5,2.9c-0.1,0.3-0.2,0.5-0.2,0.8c0,0.5-0.1,1-0.3,1.4c-0.4,0.8-0.8,1.6-1.2,2.4
			c-0.2,0.4-0.6,0.8-0.9,1.2c0.4,0.2,0.8,0.4,1.1,0.6c0.7,0.5,1.3,1,2,1.5c0.4,0.4,0.9,0.8,1.2,1.2c0.4,0.4,0.5,0.8,0.4,1.4
			c-0.2,0.9-0.2,1.7-0.1,2.6c0.1,0.3,0,0.7,0,1.1c0,0.9,0.1,1.7,0.4,2.5c0.1,0.3,0.2,0.7,0.2,1c0,0.1,0,0.2,0.1,0.3
			c0.2,0.4,0.4,0.8,0.4,1.2c0,0,0,0,0.1,0.1c0,0.4,0,0.8,0,1.2c-0.2,0.1-0.1,0.5-0.5,0.5c-0.2-0.2-0.5-0.5-0.7-0.7
			c-0.1-0.1-0.1-0.2-0.2-0.3c-0.2-0.6-0.5-1.1-1-1.6c-0.5-0.6-0.5-0.6-0.1-1.1c0.1-0.1,0.1-0.3,0.1-0.4c-0.3-0.8-0.5-1.6-0.9-2.3
			c-0.3-0.6-0.4-1.2-0.6-1.9c0-0.1,0-0.3,0-0.5c0.1-0.4,0.2-0.9,0.3-1.4c-0.3-0.1-0.5-0.3-0.7-0.4c-0.8-0.2-1.6-0.4-2.4-0.9
			c-0.1,0.1-0.1,0.2-0.2,0.3c-0.3,0.7-0.6,1.4-0.7,2.1c-0.2,0.7-0.4,1.3-0.7,1.9c-0.1,0.2-0.2,0.5-0.2,0.7c-0.1,0.8-0.3,1.5-0.4,2.3
			c-0.1,0.7-0.2,1.4-0.1,2.1c0,0.3,0.1,0.5,0.2,0.8c0.1,0.3,0.3,0.4,0.6,0.5c0.6,0.1,1.1,0.4,1.6,0.7c0.1,0.1,0.2,0.2,0.4,0.3
			c-0.6,0.1-1,0.2-1.5,0.1c-0.7-0.2-1.4,0-2,0.3C8.3,32,8.1,32,7.8,32z"/>
	</g>
</g>
</svg>
